Coordinates
version=1
nRows=23
nColumns=27
inDegrees=yes

Units are S.I. units (second, meters, Newtons, ...)
If the header above contains a line with 'inDegrees', this indicates whether rotational values are in degrees (yes) or radians (no).

endheader
time	pelvis_rotation	pelvis_tilt	pelvis_list	pelvis_tx	pelvis_ty	pelvis_tz	hip_flexion_r	hip_adduction_r	hip_rotation_r	knee_angle_r	knee_rotation_r	knee_adduction_r	knee_angle_r_beta	ankle_angle_r	subtalar_angle_r	mtp_angle_r	hip_flexion_l	hip_adduction_l	hip_rotation_l	knee_angle_l	knee_rotation_l	knee_adduction_l	knee_angle_l_beta	ankle_angle_l	subtalar_angle_l	mtp_angle_l
      2.29500000	      1.91019412	    -19.93182656	     -5.12143183	      0.05054959	      0.82924355	     -1.17887214	     34.20231177	    -21.16376650	    -29.98472354	     27.03844772	      0.00000000	      1.48680893	      0.47190994	      0.29393924	      0.00000000	      0.00000000	     43.02700977	    -25.13150409	      1.51831303	     28.55867355	      0.00000000	      3.33657141	      0.49844288	      2.15166046	      0.00000000	      0.00000000
      2.30000000	      0.90015937	    -20.31409722	     -4.46661275	      0.04864369	      0.82847539	     -1.17967726	     35.98689207	    -21.63927965	    -27.59346758	     28.00000773	      0.00000000	      0.94692667	      0.48869233	      0.42514000	      0.00000000	      0.00000000	     43.02117887	    -25.03357276	     -0.16437218	     28.78275020	      0.00000000	      2.94452307	      0.50235376	      2.24823861	      0.00000000	      0.00000000
      2.30500000	      1.71215234	    -20.58730399	     -4.57383742	      0.04837367	      0.82800433	     -1.17974830	     35.94114023	    -22.01993850	    -28.99647149	     28.34030408	      0.00000000	      1.53773663	      0.49463162	      0.49140156	      0.00000000	      0.00000000	     43.96570142	    -24.74223761	      1.02677437	     29.14682383	      0.00000000	      2.97315454	      0.50870804	      2.24668024	      0.00000000	      0.00000000
      2.31000000	      1.58207291	    -20.85891416	     -4.28447956	      0.04729070	      0.82730212	     -1.18017004	     36.79717113	    -22.44360161	    -28.43447278	     29.00821351	      0.00000000	      1.57124029	      0.50628884	      0.59513681	      0.00000000	      0.00000000	     44.36585610	    -24.56868706	      0.69896505	     29.45489523	      0.00000000	      2.75475821	      0.51408490	      2.29439759	      0.00000000	      0.00000000
      2.31500000	      1.37086708	    -21.20419361	     -3.95537201	      0.04606756	      0.82649489	     -1.18061819	     37.84604108	    -22.88664163	    -27.71673627	     29.75718305	      0.00000000	      1.61133966	      0.51936082	      0.74368418	      0.00000000	      0.00000000	     44.82149289	    -24.40956201	      0.25533771	     29.78911405	      0.00000000	      2.53429083	      0.51991812	      2.34703382	      0.00000000	      0.00000000
      2.32000000	      0.98987991	    -21.38118745	     -3.48513737	      0.04495482	      0.82562374	     -1.18119026	     38.90190079	    -23.39320425	    -26.66108536	     30.56567568	      0.00000000	      1.60245316	      0.53347168	      0.84698203	      0.00000000	      0.00000000	     44.93606192	    -24.24893746	     -0.64445592	     30.08034344	      0.00000000	      2.15256135	      0.52500103	      2.44002386	      0.00000000	      0.00000000
      2.32500000	      0.80252132	    -21.73139037	     -3.28528876	      0.04376955	      0.82473969	     -1.18148050	     39.89199207	    -23.68628415	    -26.01108026	     31.24756689	      0.00000000	      1.59831923	      0.54537293	      0.95131650	      0.00000000	      0.00000000	     45.50699096	    -24.21919640	     -1.00578406	     30.50827693	      0.00000000	      1.86984040	      0.53246988	      2.51008726	      0.00000000	      0.00000000
      2.33000000	      1.07026043	    -21.95240590	     -3.01621890	      0.04293138	      0.82377885	     -1.18183081	     40.47698136	    -24.26723576	    -26.13041278	     31.95921600	      0.00000000	      1.91627499	      0.55779355	      1.12998149	      0.00000000	      0.00000000	     46.07530866	    -23.91162254	     -0.85752662	     30.90081644	      0.00000000	      1.65526485	      0.53932099	      2.58386972	      0.00000000	      0.00000000
      2.33500000	      1.11116717	    -22.16280146	     -2.83530155	      0.04203447	      0.82277535	     -1.18210533	     41.15073448	    -24.65294134	    -25.93602727	     32.61896437	      0.00000000	      2.11629340	      0.56930833	      1.25083653	      0.00000000	      0.00000000	     46.61496273	    -23.81298257	     -1.00166917	     31.37326611	      0.00000000	      1.31067949	      0.54756679	      2.70020413	      0.00000000	      0.00000000
      2.34000000	      0.79068243	    -22.28786486	     -2.43498566	      0.04106236	      0.82167488	     -1.18250423	     42.12231231	    -25.07970417	    -25.00837857	     33.41498745	      0.00000000	      2.19651118	      0.58320155	      1.38393692	      0.00000000	      0.00000000	     46.77914659	    -23.74591975	     -1.84107561	     31.75627631	      0.00000000	      0.85450206	      0.55425158	      2.80839800	      0.00000000	      0.00000000
      2.34500000	      0.84382662	    -22.66227573	     -2.37910127	      0.03992327	      0.82050836	     -1.18265943	     42.95115827	    -25.35672330	    -24.84076898	     34.08686294	      0.00000000	      2.35306246	      0.59492799	      1.51611577	      0.00000000	      0.00000000	     47.62604528	    -23.73617976	     -1.77265052	     32.34279426	      0.00000000	      0.55526988	      0.56448825	      2.94705213	      0.00000000	      0.00000000
      2.35000000	      0.93164101	    -22.61958140	     -2.08032529	      0.03944223	      0.81931553	     -1.18294139	     43.38992982	    -25.88955153	    -24.74450507	     34.81027415	      0.00000000	      2.74431438	      0.60755390	      1.71586190	      0.00000000	      0.00000000	     47.82631587	    -23.58113181	     -2.10296513	     32.76773541	      0.00000000	      0.11002553	      0.57190487	      3.07848918	      0.00000000	      0.00000000
      2.35500000	      0.47717002	    -22.58643454	     -1.55053489	      0.03866975	      0.81801166	     -1.18332301	     44.38239615	    -26.35649590	    -23.56706418	     35.67998423	      0.00000000	      2.87928077	      0.62273320	      1.88934828	      0.00000000	      0.00000000	     47.68390045	    -23.54701654	     -3.32271851	     33.12039333	      0.00000000	     -0.45477783	      0.57805991	      3.19504488	      0.00000000	      0.00000000
      2.36000000	      0.24964570	    -22.68320427	     -1.34542831	      0.03779379	      0.81665545	     -1.18351716	     45.19076233	    -26.62776978	    -22.93580022	     36.41964698	      0.00000000	      3.05071237	      0.63564275	      2.03861451	      0.00000000	      0.00000000	     48.01161657	    -23.63922091	     -3.91637938	     33.65934534	      0.00000000	     -0.97515995	      0.58746640	      3.37719092	      0.00000000	      0.00000000
      2.36500000	      0.29550898	    -22.59721073	     -1.03796255	      0.03734423	      0.81533602	     -1.18373589	     45.63755085	    -27.13617545	    -22.75380661	     37.13953897	      0.00000000	      3.41641569	      0.64820724	      2.22270941	      0.00000000	      0.00000000	     48.14405498	    -23.52095139	     -4.30114592	     34.09154821	      0.00000000	     -1.43681439	      0.59500976	      3.53692042	      0.00000000	      0.00000000
      2.37000000	      0.60774377	    -22.61747680	     -0.95203725	      0.03682458	      0.81397311	     -1.18381234	     45.90082035	    -27.59410844	    -23.11251807	     37.78384770	      0.00000000	      3.83981492	      0.65945255	      2.41359914	      0.00000000	      0.00000000	     48.67652304	    -23.42892160	     -4.10822867	     34.64905919	      0.00000000	     -1.82149911	      0.60474017	      3.69900092	      0.00000000	      0.00000000
      2.37500000	      0.34877085	    -22.54202562	     -0.66751274	      0.03627775	      0.81258098	     -1.18395705	     46.55888846	    -27.90289512	    -22.44365712	     38.49529929	      0.00000000	      4.09559924	      0.67186972	      2.56965124	      0.00000000	      0.00000000	     48.69959528	    -23.52088904	     -4.90820361	     35.09180061	      0.00000000	     -2.40548315	      0.61246746	      3.85578234	      0.00000000	      0.00000000
      2.38000000	      0.73745282	    -22.54246337	     -0.63654663	      0.03582706	      0.81122305	     -1.18397119	     46.69381397	    -28.35166567	    -22.96621229	     39.07601670	      0.00000000	      4.53330551	      0.68200515	      2.73657714	      0.00000000	      0.00000000	     49.26037857	    -23.43133935	     -4.57633913	     35.65248855	      0.00000000	     -2.76577248	      0.62225331	      4.03495709	      0.00000000	      0.00000000
      2.38500000	      0.63758074	    -22.47328539	     -0.39641740	      0.03524887	      0.80979092	     -1.18406707	     47.23418347	    -28.70270323	    -22.54773319	     39.75573821	      0.00000000	      4.80438238	      0.69386853	      2.88094942	      0.00000000	      0.00000000	     49.39111824	    -23.47145508	     -5.08589448	     36.11198152	      0.00000000	     -3.25328933	      0.63027298	      4.19214360	      0.00000000	      0.00000000
      2.39000000	      0.53910913	    -22.38779202	     -0.18144167	      0.03472670	      0.80838137	     -1.18413929	     47.72998205	    -29.02797103	    -22.17317300	     40.41185251	      0.00000000	      5.08876534	      0.70531988	      3.04132009	      0.00000000	      0.00000000	     49.50727969	    -23.54356370	     -5.61809591	     36.57113365	      0.00000000	     -3.77408933	      0.63828669	      4.35644219	      0.00000000	      0.00000000
      2.39500000	      0.59695683	    -22.30378497	      0.04447317	      0.03419584	      0.80698103	     -1.18418904	     48.12473186	    -29.44245548	    -22.01092196	     41.05526980	      0.00000000	      5.42172688	      0.71654963	      3.22755124	      0.00000000	      0.00000000	     49.67794173	    -23.50909981	     -5.91813654	     36.99616937	      0.00000000	     -4.20425269	      0.64570497	      4.47878325	      0.00000000	      0.00000000
      2.40000000	      0.68196153	    -22.22060534	      0.17387314	      0.03373783	      0.80565479	     -1.18421155	     48.41120418	    -29.78834556	    -21.99163872	     41.60938418	      0.00000000	      5.75163281	      0.72622075	      3.34588531	      0.00000000	      0.00000000	     49.90151340	    -23.53638007	     -6.12201732	     37.44266614	      0.00000000	     -4.63226688	      0.65349780	      4.63428377	      0.00000000	      0.00000000
      2.40500000	      0.80542129	    -22.12253598	      0.43229693	      0.03321247	      0.80430762	     -1.18429195	     48.74999519	    -30.25931653	    -21.89725572	     42.21285241	      0.00000000	      6.09003266	      0.73675326	      3.50421683	      0.00000000	      0.00000000	     50.04387607	    -23.43609505	     -6.36606523	     37.82413071	      0.00000000	     -5.00537550	      0.66015562	      4.76314373	      0.00000000	      0.00000000
